<svg xmlns="http://www.w3.org/2000/svg" viewBox="0 0 240 240" role="img" aria-label="QR code placeholder">
  <rect width="240" height="240" fill="#FFFFFF"/>
  <rect x="10" y="10" width="220" height="220" fill="none" stroke="#D9C3A5" stroke-width="4"/>
  <g fill="#333333">
    <rect x="30" y="30" width="50" height="50"/>
    <rect x="42" y="42" width="26" height="26" fill="#FFFFFF"/>
    <rect x="160" y="30" width="50" height="50"/>
    <rect x="172" y="42" width="26" height="26" fill="#FFFFFF"/>
    <rect x="30" y="160" width="50" height="50"/>
    <rect x="42" y="172" width="26" height="26" fill="#FFFFFF"/>
    <rect x="100" y="100" width="20" height="20"/>
    <rect x="130" y="100" width="10" height="10"/>
    <rect x="100" y="130" width="10" height="10"/>
    <rect x="120" y="130" width="20" height="20"/>
    <rect x="150" y="120" width="10" height="30"/>
    <rect x="170" y="100" width="10" height="10"/>
    <rect x="190" y="120" width="20" height="10"/>
    <rect x="100" y="160" width="10" height="30"/>
    <rect x="120" y="180" width="30" height="10"/>
    <rect x="160" y="170" width="10" height="20"/>
    <rect x="180" y="150" width="30" height="10"/>
    <rect x="190" y="170" width="10" height="30"/>
  </g>
  <text x="120" y="230" text-anchor="middle" font-family="Poppins, Arial, sans-serif" font-size="12" fill="#7FA7C6">Replace with your real QR</text>
</svg>
